# xmcd CD database file
#
# Track frame offsets:
#	150
#	27060
#	54177
#	78884
#	104073
#	135418
#	168392
#
# Disc length: 2710 seconds
#
# Revision: 0
# Processed by: cddbd v1.5.1PL2 Copyright (c) Steve Scherf et al.
# Submitted via: CDex 1.51
#
DISCID=4b0a9407
DTITLE=Herbie Hancock - Collection
DYEAR=1999
DGENRE=Jazz
TTITLE0=Jack Rabbit
TTITLE1=The Eye of the Hurricane
TTITLE2=Canataloupe Island
TTITLE3=The Sorcerer
TTITLE4=Driftin'
TTITLE5=One Finger Snap
TTITLE6=Speak Like a Child
EXTD=YEAR: 1999
EXTT0=
EXTT1=
EXTT2=
EXTT3=
EXTT4=
EXTT5=
EXTT6=
PLAYORDER=
